HIERARCHY
ROOT hip
{
	OFFSET 0.000000 0.000000 0.000000 
	CHANNELS 6 Xposition Yposition Zposition Xrotation Zrotation Yrotation
	JOINT abdomen
	{
		OFFSET 0.000000 3.402643 0.000000 
		CHANNELS 3 Xrotation Zrotation Yrotation
		JOINT chest
		{
			OFFSET 0.000000 8.438565 -0.680529 
			CHANNELS 3 Xrotation Zrotation Yrotation
			JOINT neck
			{
				OFFSET 0.000000 10.207942 -0.272212 
				CHANNELS 3 Xrotation Zrotation Yrotation
				JOINT head
				{
					OFFSET 0.000000 3.130431 0.000000 
					CHANNELS 3 Xrotation Zrotation Yrotation
					End Site
					{
						OFFSET 0.000000 3.130435 0.000000 
					}
				}
			}
			JOINT lCollar
			{
				OFFSET 3.470700 6.669187 -0.816635 
				CHANNELS 3 Yrotation Zrotation Xrotation
				JOINT lShldr
				{
					OFFSET 3.198488 0.000000 0.000000 
					CHANNELS 3 Zrotation Yrotation Xrotation
					JOINT lForeArm
					{
						OFFSET 10.139888 0.000000 0.000000 
						CHANNELS 3 Yrotation Zrotation Xrotation
						JOINT lHand
						{
							OFFSET 8.370511 0.000000 0.000000 
							CHANNELS 3 Zrotation Yrotation Xrotation
							End Site
							{
								OFFSET 4.083176 0.000000 0.000000 
							}
						}
					}
				}
			}
			JOINT rCollar
			{
				OFFSET -3.470700 6.669187 -0.816635 
				CHANNELS 3 Yrotation Zrotation Xrotation
				JOINT rShldr
				{
					OFFSET -3.198488 0.000000 0.000000 
					CHANNELS 3 Zrotation Yrotation Xrotation
					JOINT rForeArm
					{
						OFFSET -10.139888 0.000000 0.000000 
						CHANNELS 3 Yrotation Zrotation Xrotation
						JOINT rHand
						{
							OFFSET -8.370511 0.000000 0.000000 
							CHANNELS 3 Zrotation Yrotation Xrotation
							End Site
							{
								OFFSET -4.083176 0.000000 0.000000 
							}
						}
					}
				}
			}
		}
	}
	JOINT lThigh
	{
		OFFSET 5.308129 -1.633274 1.361059 
		CHANNELS 3 Xrotation Zrotation Yrotation
		JOINT lShin
		{
			OFFSET -2.041588 -20.007561 0.000000 
			CHANNELS 3 Xrotation Zrotation Yrotation
			JOINT lFoot
			{
				OFFSET 0.000000 -19.190928 -1.224953 
				CHANNELS 3 Xrotation Yrotation Zrotation
				End Site
				{
					OFFSET 0.000000 -2.449906 4.627600 
				}
			}
		}
	}
	JOINT rThigh
	{
		OFFSET -5.308129 -1.633274 1.361059 
		CHANNELS 3 Xrotation Zrotation Yrotation
		JOINT rShin
		{
			OFFSET 2.041588 -20.007561 0.000000 
			CHANNELS 3 Xrotation Zrotation Yrotation
			JOINT rFoot
			{
				OFFSET 0.000000 -19.190928 -1.224953 
				CHANNELS 3 Xrotation Yrotation Zrotation
				End Site
				{
					OFFSET 0.000000 -2.449906 4.627600 
				}
			}
		}
	}
}
MOTION
Frames: 6
Frame Time: 0.033333
1.245081 37.318180 1.245081 0.000000 0.000000 0.000000 25.102688 6.394765 -16.323036 -5.058582 0.065922 7.508560 17.814896 -1.117623 -2.240069 10.524219 0.508720 -0.030344 -4.666922 -5.238740 -3.710824 -81.899323 -100.895447 30.980984 -33.780937 -2.348939 2.227460 57.896179 -14.909410 -104.422455 1.647578 4.474117 -3.674787 109.265770 34.187519 35.217922 125.573135 2.994643 0.004299 21.186436 -5.365073 55.824986 -47.538189 9.218782 8.071108 57.966511 0.714311 -4.422875 -9.808444 5.709884 -0.168385 7.859832 -10.380092 -5.706290 84.608505 -2.638635 4.610375 7.482704 7.132882 4.548830 
0.978571 39.722313 0.978571 0.000000 0.000000 0.000000 25.102688 6.394765 -16.323036 -5.058582 0.065922 7.508560 17.814896 -1.117623 -2.240069 10.524219 0.508720 -0.030344 -4.666922 -5.238740 -3.710824 -81.899323 -100.895447 30.980984 -33.780937 -2.348939 2.227460 57.896179 -14.909410 -104.422455 1.647578 4.474117 -3.674787 109.265770 34.187519 35.217922 125.573135 2.994643 0.004299 21.186436 -5.365073 55.824986 -40.657509 7.751745 6.839281 51.621716 0.298485 -4.249507 -10.263910 5.063630 -0.848530 -2.861076 -10.581999 -5.909701 85.602684 -2.695137 4.623927 9.087924 6.078954 4.171635 
0.390031 41.970985 0.390031 0.000000 0.000000 0.000000 25.102688 6.394765 -16.323036 -5.058582 0.065922 7.508560 17.814896 -1.117623 -2.240069 10.524219 0.508720 -0.030344 -4.666922 -5.238740 -3.710824 -81.899323 -100.895447 30.980984 -33.780937 -2.348939 2.227460 57.896179 -14.909410 -104.422455 1.647578 4.474117 -3.674787 109.265770 34.187519 35.217922 125.573135 2.994643 0.004299 21.186436 -5.365073 55.824986 -33.773823 6.443844 5.409284 45.276081 -0.107873 -4.001144 -10.753329 4.489514 -1.304811 -14.304453 -10.876894 -6.122845 87.045860 -2.802418 4.600703 11.351430 5.049126 3.495051 
-0.265136 44.041985 -0.265136 0.000000 0.000000 0.000000 25.102688 6.394765 -16.323036 -5.058582 0.065922 7.508560 17.814896 -1.117623 -2.240069 10.524219 0.508720 -0.030344 -4.666922 -5.238740 -3.710824 -81.899323 -100.895447 30.980984 -33.780937 -2.348939 2.227460 57.896179 -14.909410 -104.422455 1.647578 4.474117 -3.674787 109.265770 34.187519 35.217922 125.573135 2.994643 0.004299 21.186436 -5.365073 55.824986 -27.206442 5.498292 4.045338 40.038506 -0.416427 -3.779881 -12.145664 4.004047 -1.663404 -25.758703 -11.219141 -6.266738 88.479500 -2.899873 4.582286 13.562548 4.016884 2.739453 
-0.687109 45.363419 -0.687109 0.000000 0.000000 0.000000 25.102688 6.394765 -16.323036 -5.058582 0.065922 7.508560 17.814896 -1.117623 -2.240069 10.524219 0.508720 -0.030344 -4.666922 -5.238740 -3.710824 -81.899323 -100.895447 30.980984 -33.780937 -2.348939 2.227460 57.896179 -14.909410 -104.422455 1.647578 4.474117 -3.674787 109.265770 34.187519 35.217922 125.573135 2.994643 0.004299 21.186436 -5.365073 55.824986 -20.661406 4.735633 2.597814 34.895302 -0.685518 -3.546820 -16.391514 3.650187 -1.614339 -36.521156 -11.503221 -6.293082 89.513695 -2.977945 4.550729 15.113379 3.040262 2.046169 
-0.853678 45.829815 -0.853678 0.000000 0.000000 0.000000 25.102688 6.394765 -16.323036 -5.058582 0.065922 7.508560 17.814896 -1.117623 -2.240069 10.524219 0.508720 -0.030344 -4.666922 -5.238740 -3.710824 -81.899323 -100.895447 30.980984 -33.780937 -2.348939 2.227460 57.896179 -14.909410 -104.422455 1.647578 4.474117 -3.674787 109.265770 34.187519 35.217922 125.573135 2.994643 0.004299 21.186436 -5.365073 55.824986 -14.432048 4.296387 1.289706 30.842894 -0.890104 -3.340519 -21.526165 3.340009 -1.473639 -45.902760 -11.658603 -6.212303 89.718369 -2.997520 4.546014 15.302319 2.133125 1.490978 
